<svg width="28" height="35" viewBox="0 0 28 35" fill="none" xmlns="http://www.w3.org/2000/svg">
<path d="M19.0585 5.58213C19.7086 4.81967 20.2043 3.93404 20.517 2.97609C20.8298 2.01815 20.9536 1.00676 20.8812 0C18.8855 0.163941 17.033 1.11915 15.7227 2.65982C15.0952 3.39823 14.6198 4.25726 14.3244 5.18603C14.0291 6.11481 13.9198 7.09445 14.0032 8.06696C14.9767 8.07522 15.939 7.85539 16.8156 7.42451C17.6922 6.99362 18.4597 6.36323 19.0585 5.58213ZM23.3917 18.6013C23.4032 17.2604 23.7503 15.9446 24.4002 14.7781C25.05 13.6116 25.9812 12.6329 27.1059 11.9342C26.3961 10.8934 25.4578 10.0353 24.3654 9.4278C23.273 8.82032 22.0565 8.4802 20.8124 8.43444C18.13 8.15446 15.6539 10.0268 14.2267 10.0268C12.7995 10.0268 10.7877 8.46944 8.55234 8.50443C7.09098 8.55342 5.66704 8.98702 4.41941 9.76293C3.17178 10.5388 2.14306 11.6306 1.43357 12.9316C-1.59276 18.2863 0.659794 26.2483 3.68613 30.5705C5.06174 32.6878 6.78125 35.0852 9.051 34.9977C11.3208 34.9102 12.0601 33.5628 14.691 33.5628C17.3218 33.5628 18.13 34.9977 20.3654 34.9452C22.6007 34.8927 24.1827 32.7753 25.6271 30.658C26.6503 29.1207 27.4495 27.4409 28 25.6708C26.6373 25.0794 25.4746 24.0946 24.6556 22.8383C23.8367 21.5819 23.3973 20.1089 23.3917 18.6013Z" fill="#34A853"/>
</svg>
