<?xml version="1.0" encoding="UTF-8"?>
<svg width="24" height="24" viewBox="0 0 24 24" xmlns="http://www.w3.org/2000/svg">
    <path d="M17.05 12.536c-.031-3.013 2.459-4.462 2.572-4.531-1.399-2.047-3.577-2.329-4.356-2.363-1.855-.188-3.624 1.094-4.566 1.094-.956 0-2.423-1.068-3.988-1.041-2.052.031-3.94 1.193-4.997 3.028-2.131 3.697-.545 9.157 1.531 12.145 1.015 1.466 2.224 3.11 3.809 3.051 1.529-.061 2.106-.988 3.956-.988 1.835 0 2.361.988 3.971.956 1.64-.031 2.68-1.491 3.682-2.963 1.16-1.694 1.637-3.334 1.666-3.419-.036-.016-3.196-1.227-3.228-4.868z" fill="#000000"/>
    <path d="M14.115 7.353c.842-1.021 1.41-2.436 1.255-3.847-1.213.049-2.682.807-3.551 1.824-.78.904-1.462 2.349-1.279 3.734 1.354.105 2.734-.689 3.575-1.711z" fill="#000000"/>
</svg>
