<svg width="40" height="40" viewBox="0 0 40 40" fill="none" xmlns="http://www.w3.org/2000/svg">
    <circle cx="20" cy="20" r="20" fill="#E6E6E6"/>
    <path d="M20 10C21.0609 10 22.0783 10.4214 22.8284 11.1716C23.5786 11.9217 24 12.9391 24 14C24 15.0609 23.5786 16.0783 22.8284 16.8284C22.0783 17.5786 21.0609 18 20 18C18.9391 18 17.9217 17.5786 17.1716 16.8284C16.4214 16.0783 16 15.0609 16 14C16 12.9391 16.4214 11.9217 17.1716 11.1716C17.9217 10.4214 18.9391 10 20 10ZM20 21C24.42 21 28 22.79 28 25V28H12V25C12 22.79 15.58 21 20 21Z" fill="#808080"/>
</svg>
