<svg width="27" height="28" viewBox="0 0 27 28" fill="none" xmlns="http://www.w3.org/2000/svg">
<path d="M26.9857 14.2619C26.9857 13.1148 26.8939 12.2777 26.6951 11.4095H13.7689V16.5872H21.3563C21.2034 17.8739 20.3773 19.8117 18.5416 21.1138L18.5159 21.2871L22.6029 24.4957L22.8861 24.5243C25.4866 22.0905 26.9857 18.5095 26.9857 14.2619Z" fill="#4285F4"/>
<path d="M13.7689 27.9038C17.4861 27.9038 20.6067 26.6636 22.8861 24.5244L18.5416 21.1138C17.3791 21.9354 15.8187 22.509 13.7689 22.509C10.1282 22.509 7.03819 20.0753 5.93668 16.7113L5.77523 16.7252L1.52549 20.0582L1.46991 20.2147C3.73388 24.7723 8.38425 27.9038 13.7689 27.9038Z" fill="#34A853"/>
<path d="M5.93668 16.7113C5.64604 15.8432 5.47783 14.913 5.47783 13.9519C5.47783 12.9907 5.64604 12.0607 5.92139 11.1925L5.91369 11.0077L1.61069 7.62115L1.4699 7.68902C0.536814 9.5803 0.00140381 11.7041 0.00140381 13.9519C0.00140381 16.1997 0.536814 18.3235 1.4699 20.2147L5.93668 16.7113Z" fill="#FBBC05"/>
<path d="M13.7689 5.3947C16.3541 5.3947 18.098 6.52635 19.0923 7.47205L22.9778 3.6275C20.5915 1.37969 17.4861 0 13.7689 0C8.38425 0 3.73388 3.1314 1.46991 7.68899L5.92139 11.1925C7.03819 7.82857 10.1282 5.3947 13.7689 5.3947Z" fill="#EB4335"/>
</svg>
